<?xml version="1.0" encoding="UTF-8"?>
<svg id="Layer_1" xmlns="http://www.w3.org/2000/svg" version="1.1" viewBox="0 0 136 64">
  <!-- Generator: Adobe Illustrator 30.1.0, SVG Export Plug-In . SVG Version: 2.1.1 Build 136)  -->
  <defs>
    <style>
      .st0 {
        fill: #214f26;
      }
    </style>
  </defs>
  <path class="st0" d="M69.05,6.75c.09-.2.27-.12.4-.12,1.82,0,3.65.03,5.47-.02.77-.02,1.24.28,1.67.89,2.5,3.58,5.06,7.11,7.73,10.56,1.73,2.23,3.51,4.4,5.33,6.55.75.88,1.09,1.11,2.28.23,1.96-1.44,3.27-3.33,3.9-5.67.64-2.38.66-4.78.04-7.17-.19-.73-.47-1.43-.86-2.08-.91-1.51-2.21-2.46-3.99-2.68-.2-.02-.4-.04-.59-.09-.09-.03-.21-.14-.22-.23-.03-.19.12-.27.29-.28.2-.01.4-.01.59-.01,2.97,0,5.95,0,8.92,0,.11,0,.23.02.34.03.1.24-.08.28-.22.32-.58.18-.9.63-1.19,1.11-.42.68-.68,1.43-.89,2.19-.42,1.46-.56,2.95-.64,4.46-.07,1.43-.22,2.84-.54,4.24-.65,2.77-2.01,5.06-4.34,6.74-.06.05-.13.09-.19.14-.65.53-.71.96-.13,1.6,2.3,2.5,4.08,5.36,5.72,8.31.62,1.11,1.25,2.21,2.03,3.21,1.05,1.36,2.37,2.33,4.07,2.71,1.96.44,3.85.33,5.67-.59,1.14-.58,2.21-1.26,3.18-2.08,1.35-1.14,2.07-2.61,2.03-4.38-.06-2.38-.19-4.75-.3-7.13-.1-2.14-.24-4.28-.34-6.41-.13-2.65-.24-5.31-.37-7.96-.03-.55-.09-1.11-.16-1.66-.04-.31-.12-.62-.21-.92-.4-1.36-1.07-2.48-2.62-2.74.04-.36.29-.24.44-.24,3.73,0,7.46,0,11.18,0,3.29,0,6.58.02,9.88,0,1.32,0,1.66.15,1.9,1.53.3,1.72.7,3.41,1.06,5.12.06.27.09.55.12.82,0,.06-.05.18-.1.19-.1.03-.23.04-.33,0-.1-.04-.18-.15-.25-.24-.19-.25-.37-.52-.56-.77-1.91-2.43-4.28-4.22-7.28-5.1-.76-.22-1.54-.39-2.34-.4-1.63-.01-3.25-.01-4.88-.01-.12,0-.24,0-.36.01-.49.06-.81.35-.86.83-.03.27-.02.55-.02.83,0,4.28,0,8.57,0,12.85,0,1.6.1,1.7,1.68,1.7,1.75,0,3.49-.04,5.24.01,1.67.05,2.91-.64,3.8-2,.43-.66.8-1.37,1.2-2.05.12-.2.24-.41.38-.59.03-.05.15-.07.22-.05.06.02.14.09.15.16.04.15.05.31.05.47,0,3.13,0,6.27,0,9.4,0,.15-.03.31-.08.45-.05.13-.21.12-.3.07-.09-.05-.17-.16-.23-.26-.21-.38-.39-.78-.61-1.16-.3-.51-.62-1.02-.96-1.5-.79-1.11-1.89-1.69-3.24-1.71-2.06-.03-4.12-.03-6.19,0-.83,0-1.08.29-1.14,1.18-.14,2.26-.31,4.51-.39,6.77-.06,1.76-.76,3.11-2.17,4.15-2.11,1.56-4.29,2.97-6.69,4.07-3.03,1.38-6.13,1.43-9.3.71-1.76-.4-3.23-1.31-4.38-2.69-.61-.73-1.17-1.5-1.7-2.29-.91-1.34-1.78-2.72-2.69-4.07-1.11-1.65-2.32-3.21-3.61-4.73-.18-.21-.36-.42-.55-.62-.3-.31-.65-.4-1.08-.32-.82.15-1.64.28-2.47.39-2.8.35-5.62.31-8.44.27-.32,0-.64-.03-.95,0-.51.04-.77.3-.87.82-.01.08-.03.16-.03.24,0,1.86-.08,3.73.35,5.56.23.97.57,1.9,1.13,2.73.86,1.28,2.03,2.09,3.57,2.33.27.04.55.07.82.13.12.02.23.1.22.23-.01.18-.12.28-.31.27-.12,0-.24,0-.36,0-3.05,0-6.11,0-9.16,0-.11,0-.23-.02-.33-.03-.06-.1-.05-.18.04-.21.76-.28,1.21-.86,1.56-1.55.42-.82.69-1.69.89-2.58.3-1.36.49-2.73.46-4.13-.01-.75,0-1.51,0-2.26,0-1.44-.11-1.57-1.5-1.69-1.62-.14-3.24-.25-4.86-.38-1.03-.08-2.05-.18-3.08-.24-1.32-.07-1.66.41-1.13,1.66,1.24,2.92,2.5,5.82,3.74,8.74.47,1.1,1.27,1.8,2.44,2.05.19.04.38.1.56.18.05.02.09.13.09.2,0,.07-.06.17-.12.18-.15.04-.31.06-.46.06-3.29,0-6.58,0-9.88,0-.15,0-.31-.02-.46-.07-.05-.02-.11-.12-.12-.18,0-.06.05-.18.1-.19.3-.08.62-.13.92-.21,1.1-.29,1.55-1.03,1.28-2.15-.07-.31-.19-.61-.3-.9-1.18-2.9-2.37-5.79-3.55-8.69-.05-.11-.09-.22-.13-.33-.21-.55-.61-.8-1.19-.79-.79.02-1.59-.02-2.38.02-2.18.1-4.35.32-6.46.91-.99.28-1.96.63-2.87,1.13-1.78.98-3.03,2.41-3.59,4.38-.19.65-.34,1.31-.46,1.97-.12.67-.14,1.34,0,2.01.26,1.34,1.03,2.2,2.41,2.45.12.02.24.03.35.07.23.08.65-.06.61.36-.03.3-.38.21-.6.21-3.09,0-6.19,0-9.28,0-.16,0-.31-.04-.46-.07-.02,0-.05-.06-.05-.1,0-.07.02-.19.06-.2.15-.05.3-.08.46-.1,1.07-.15,1.93-.68,2.65-1.47.62-.68,1.14-1.43,1.57-2.23.67-1.26,1.34-2.52,1.94-3.81,2.59-5.61,5.16-11.23,7.74-16.84,1.32-2.88,2.65-5.76,3.97-8.64.13-.29.26-.59.44-.84.34-.47.99-.45,1.3.04.19.3.31.64.45.97,2.5,5.87,4.99,11.74,7.49,17.61.11.26.21.51.32.77.19.44.53.65,1.02.69,3.16.24,6.33.49,9.49.74.24.02.48.03.71.02.43-.03.74-.31.82-.73.04-.23.03-.47.03-.71,0-4.72,0-9.44,0-14.16,0-.96-.14-1.9-.43-2.81-.15-.5-.37-.96-.68-1.38-.36-.49-.8-.87-1.42-1.02-.17-.04-.41,0-.47-.25M73.13,20.26c0,1.9,0,3.8,0,5.7,0,.28-.01.56,0,.83.05.83.34,1.14,1.18,1.16,3.09.09,6.18.09,9.26-.26.27-.03.55-.08.81-.16.54-.16.78-.73.53-1.23-.09-.17-.22-.33-.34-.48-3.29-4.01-6.4-8.17-9.44-12.37-.14-.19-.27-.39-.43-.56-.23-.24-.51-.38-.86-.27-.38.12-.61.38-.66.76-.04.31-.04.63-.04.95,0,1.98,0,3.96,0,5.94M54.39,25.77c-.05-.15-.13-.42-.24-.67-1.39-3.45-2.79-6.89-4.19-10.34-.09-.22-.17-.45-.3-.64-.34-.51-1.04-.52-1.41-.02-.16.22-.27.48-.39.73-1.83,3.95-3.66,7.9-5.48,11.85-.12.25-.24.51-.29.77-.12.59.4,1.11.99,1.01.19-.03.37-.13.56-.19.56-.18,1.12-.38,1.7-.54,2.3-.63,4.66-.89,7.04-.93.4,0,.79,0,1.19-.03.47-.05.83-.45.83-.98"/>
  <path class="st0" d="M31.94,6.85c-.93.25-1.4.92-1.77,1.69-.65,1.38-.98,2.84-1.15,4.34-.08.75-.11,1.5-.11,2.26,0,7.97,0,15.94,0,23.9,0,.59.05,1.19.06,1.78,0,.16-.01.33-.18.4-.34.16-.98.05-1.21-.22-.23-.27-.44-.56-.65-.85-7.06-9.37-14.13-18.73-21.19-28.1-.24-.32-.49-.62-.74-.93-.06-.08-.12-.08-.21-.05-.09.03-.13.07-.14.17,0,.12-.03.24-.03.35,0,.24,0,.48,0,.71v19.74c0,1.23.06,2.46.36,3.66.24.97.6,1.89,1.18,2.71.86,1.23,2.01,2,3.51,2.23.23.04.47.08.71.11.17.02.33.08.33.26,0,.17-.13.27-.32.27-.12,0-.24,0-.36,0-3.01,0-6.03,0-9.04,0-.14,0-.32.09-.44-.18,1.18-.51,1.65-1.58,2.05-2.7.56-1.58.83-3.22.89-4.89.04-1.11.02-2.22.02-3.33,0-5.67,0-11.34,0-17.01,0-.95,0-1.9-.19-2.84-.12-.63-.3-1.24-.6-1.8-.43-.79-1-1.43-1.95-1.59-.1-.02-.19-.1-.26-.14-.02-.15.03-.18.14-.18,2.02,0,4.04,0,6.06-.02.49,0,.83.13,1.1.53.38.56.8,1.08,1.21,1.62,5.8,7.74,11.61,15.47,17.41,23.21.1.13.18.26.29.38.28.32.45.75.86.95.38-.4.19-.89.19-1.34.01-5.27,0-10.55.01-15.82,0-1.39-.09-2.77-.45-4.12-.21-.81-.52-1.58-.97-2.29-.9-1.42-2.17-2.28-3.85-2.5-.04,0-.08,0-.12-.02-.27-.08-.75.06-.72-.38.02-.36.45-.22.7-.22,3.05,0,6.11,0,9.16,0,.11,0,.23-.03.39.23"/>
  <path class="st0" d="M42.35,52.78c1.42-.1,1.29-.1,1.3,1.21,0,.98,0,1.96,0,2.94-.33.02-.29-.25-.39-.4-.33-.48-.47-.52-.93-.16-1.52,1.18-3.2,1.25-4.94.65-1.27-.44-2.1-1.36-2.49-2.66-.62-2.06,0-4.02,1.7-5.23.09.09.18.18.27.27-.74.74-1.07,1.66-1.06,2.69.02,1.13.24,2.21.94,3.14,1.39,1.87,3.98,1.72,5.44.63.17-.13.29-.3.28-.5-.03-.78.17-1.58-.15-2.35.02-.08.03-.16.03-.24"/>
  <path class="st0" d="M50.3,55.51c-.09.58-.11,1.16-.42,1.72h-5.07c.12-.34.26-.64.32-.96.06-.31.04-.63.05-.95,0-.36,0-.71,0-1.07,0-1.15,0-2.3,0-3.45,0-.77.12-1.57-.57-2.28h2.29c-.49.62-.53,1.28-.53,1.96.02,1.94,0,3.88.01,5.83,0,.55.09.62.61.64,1,.05,1.87-.26,2.61-.94.19-.18.3-.49.69-.5"/>
  <path class="st0" d="M84.46,53.52s-.07.04-.1.06c-1.58.57-1.31.11-1.35,1.96-.01.56.02,1.11.47,1.65-.74.16-1.38.09-2.07.05.13-.41.29-.76.34-1.13.06-.39.03-.79.04-1.18,0-1.46,0-2.92,0-4.39,0-1.02,0-1.02-.42-1.93.93-.16,2.88-.16,3.84,0,0,.1-.02.19-.03.29-.59-.02-1.19-.05-1.78-.06-.22,0-.38.12-.38.36,0,1.42,0,2.84,0,4.25.56.2.98-.17,1.44-.18,0,.08,0,.17,0,.25"/>
  <path class="st0" d="M96.56,49.85c.18-.39.35-.79.54-1.18.07-.14.32-.13.39.01.12.25.23.5.34.75.88,2.07,1.75,4.14,2.64,6.2.23.53.36,1.13,1.12,1.58-.64.02-1.01.05-1.39.04-.39,0-.79.09-1.17-.12.29-.2.45-.44.3-.81-.22-.55-.41-1.11-.61-1.66-.04-.28-.24-.42-.48-.51.11-.23.05-.45-.04-.67-.45-1.07-.89-2.13-1.34-3.2l-.3-.44Z"/>
  <path class="st0" d="M90.13,56.69c.03-.59.08-1.19.09-1.78.01-1.55,0-3.09,0-4.64,0-.6,0-1.2-.54-1.74.8-.07,1.49-.09,2.25,0-.43.59-.5,1.2-.5,1.85.02,1.66.01,3.33,0,4.99,0,.52.08,1.02.24,1.52-.02.1-.05.21-.07.31-.47,0-.95,0-1.42,0-.02-.18-.03-.36-.05-.54"/>
  <path class="st0" d="M85.18,48.89c0-.1.02-.19.03-.29.27.04.56.05.81.14,1.28.46,1.73,1.68,1.08,2.89-.3.58-.81.97-1.36,1.44.93.7,1.5,1.63,2.08,2.55.09.13.19.25.28.38.27.36.61.49,1.06.3-.02.11-.02.19-.06.23-.96,1.1-1.48,1.06-2.26-.17-.27-.44-.52-.89-.78-1.34-.39-.67-.89-1.21-1.62-1.51,0-.08,0-.17,0-.25.14-.07.29-.14.42-.21.81-.43,1.16-1.15,1.25-2.02.09-.89-.15-1.64-.96-2.14"/>
  <path class="st0" d="M54.89,49.82c.2-.44.22-1,.74-1.25.41.3.48.79.66,1.21,1,2.32,1.97,4.64,2.95,6.97-.08.16-.17.31-.25.47-.4,0-.79,0-1.19,0-.03-.11-.06-.23-.08-.34-.07-.88-.55-1.62-.85-2.42-.04-.16-.12-.28-.3-.31.11-.29-.01-.53-.12-.79-.42-1.02-.83-2.04-1.25-3.06-.11-.16-.21-.32-.32-.48"/>
  <path class="st0" d="M68.13,49.38c.08-.18.15-.37.23-.54.11-.23.3-.35.57-.35.39,0,.78,0,1.2,0q-.42.96-.43,2.07c0,1.62,0,3.24,0,4.86,0,.87,0,.87.4,1.78-.67.12-1.31.08-2.04.02.48-.7.44-1.45.44-2.2,0-1.58.01-3.16.02-4.74q.07-.66-.39-.89"/>
  <path class="st0" d="M66.05,54.66c-.29.48-.25,1.16-.89,1.43-.54-.27-.66-.85-.92-1.31-.89-1.52-1.73-3.07-2.6-4.61q-.15-.52-.74-.52c-.15-.35-.31-.71-.46-1.05.05-.04.07-.08.1-.08,1.75-.06,1.35-.18,2.1,1.12.92,1.6,1.82,3.21,2.73,4.82.14.35.43.22.68.21"/>
  <path class="st0" d="M72.78,49.35c.11-.11.21-.24.34-.31,1.64-.89,3.33-.91,4.99-.11,2.12,1.02,2.94,3.66,1.9,5.89-.18.39-.39.77-.73,1.06-.17-.03-.35-.06-.52-.1,1.02-1.73.75-3.4-.24-5.03-1.14-1.88-3.8-2.74-5.7-1.04-.02-.12-.03-.24-.05-.36"/>
  <path class="st0" d="M72.78,49.35c.02.12.03.24.05.36-.59.93-.86,1.94-.73,3.04.29,2.49,2.11,4.58,4.75,4.17,0,.11,0,.22,0,.33-.74.18-1.49.17-2.23.03-1.45-.28-2.5-1.08-3.14-2.42-.77-1.61-.5-4.41,1.31-5.5"/>
  <path class="st0" d="M107.44,26.54c-.33-.38-.27-.8-.36-1.17-.21-.92-.7-1.58-1.66-1.83-.08-.02-.16-.03-.23-.06-.07-.03-.13-.08-.28-.18.69-.27,1.39-.43,1.8-1.07.4-.61.37-1.35.61-2.05.32.19.21.45.24.65.18,1.2.69,2.11,1.99,2.34.07.01.12.09.18.14-.09.22-.31.19-.48.23-.85.24-1.34.82-1.55,1.64-.11.41-.17.83-.27,1.34"/>
  <path class="st0" d="M60.91,49.65q.58,0,.74.52c-.21.04-.36.16-.41.37-.04.15-.05.31-.05.47,0,1.35-.03,2.7,0,4.04.02,1.11.28,1.49,1.35,2.13-.41.1-.74.09-1.07.09-.35,0-.71.05-1.12-.11.56-1.16.51-2.38.51-3.6,0-1.31.03-2.61.05-3.92"/>
  <path class="st0" d="M56.58,54.16c.17.03.25.15.3.31-1.07,0-2.13,0-3.2-.02-.47-.01-.75.18-.88.61-.09.3-.2.6-.25.91-.09.52.08.94.73,1.2-.84.23-1.57.11-2.45.12.25-.22.42-.33.55-.47.16-.17.3-.36.44-.56.11-.16.2-.34.29-.52.11-.21.2-.43.31-.64.23-.46.46-.92.68-1.38.08,0,.16,0,.24-.01.02.2.02.42.29.42.99.02,1.98.03,2.97.04"/>
  <path class="st0" d="M98.25,54.16c.25.09.44.23.48.51-.2-.14-.41-.23-.66-.23-.94,0-1.89,0-2.83,0-.31,0-.53.11-.66.39-.08.18-.17.36-.23.54-.24.67-.26,1.3.5,1.84-.83.08-1.51.08-2.36,0,.77-.46,1.1-1.07,1.4-1.7.29-.6.57-1.21.86-1.81.1,0,.2-.01.3-.02-.04.21-.04.41.24.42.99.02,1.97.03,2.96.05"/>
  <path class="st0" d="M38.31,48.48c.87-.16,1.72-.14,2.55.19.68.27,1.23.69,1.6,1.34.21.38.17.55-.22.75-.07.04-.14.06-.22.09-.31.12-.44.08-.57-.19-.02-.03-.03-.07-.04-.11-.46-1.22-1.38-1.76-2.64-1.82-.16,0-.31-.01-.47-.02,0-.07,0-.15.01-.22"/>
  <path class="st0" d="M66.05,54.66c-.25.01-.54.14-.68-.21.28,0,.42-.17.53-.4.3-.64.58-1.29.9-1.93.45-.91.77-1.89,1.33-2.75q.46.24.39.89c-.16-.04-.33-.02-.42.13-.19.35-.35.71-.52,1.06-.51,1.07-.92,2.18-1.53,3.2"/>
  <path class="st0" d="M95.05,53.69c-.1,0-.2.01-.3.02.53-1.32,1.03-2.66,1.82-3.86.1.15.2.29.3.44-.31.16-.37.49-.51.77-.44.88-.87,1.76-1.31,2.64"/>
  <path class="st0" d="M53.32,53.69c-.08.01-.16.01-.24.01.5-1.34,1.05-2.66,1.81-3.88.11.16.21.32.32.48-.45.14-.48.58-.64.91-.42.82-.68,1.73-1.25,2.48"/>
  <path class="st0" d="M76.84,57.25c0-.11,0-.22,0-.33.72-.25,1.38-.6,1.91-1.14.17.03.35.06.52.1-.6.84-1.42,1.29-2.44,1.37"/>
  <path class="st0" d="M38.31,48.48c0,.07,0,.15-.01.22-.48.24-.95.47-1.43.71-.09-.09-.18-.18-.27-.27.48-.46,1.05-.67,1.71-.66"/>
  <path class="st0" d="M42.35,52.78c0,.08,0,.16-.03.24-.77.04-1.55.16-2.51-.15.98-.21,1.76-.16,2.54-.09"/>
  <path class="st0" d="M59,57.22c.08-.16.17-.31.25-.47.15.1.31.2.46.31.02.01-.03.15-.05.15-.22,0-.44,0-.66,0"/>
  <path class="st0" d="M90.13,56.69c.02.18.03.36.05.54-.15.05-.32.06-.4-.1-.03-.06.1-.2.17-.29.05-.06.11-.1.17-.15"/>
  <path class="st0" d="M57.73,56.88c.03.11.05.23.08.34-.11,0-.22.01-.33.01-.03,0-.07-.02-.1-.04.02-.05.03-.11.06-.14.09-.07.19-.12.29-.18"/>
  <path class="st0" d="M91.6,57.22c.02-.1.05-.21.07-.31.07.07.13.15.2.22l-.27.09Z"/>
  <path class="st0" d="M75.51,53.88c-.1-.59-.53-.93-1.07-1.28.77-.18.98-.72,1.15-1.51.2.45.31.72.44.98.15.29.46.38.76.6-.4.28-.83.52-.95,1.01-.11.07-.22.13-.33.2"/>
  <path class="st0" d="M75.51,53.88c.11-.07.22-.13.33-.2,0,.08.02.15,0,.23-.03.14,0,.36-.21.33-.18-.02-.16-.21-.13-.36"/>
</svg>